<svg id="Layer_1" data-name="Layer 1" xmlns="http://www.w3.org/2000/svg" viewBox="0 0 16 16"><defs><style>.cls-1{fill:#fa543c;}.cls-2{fill:#fff;}</style></defs><title>16 px</title><rect class="cls-1" x="1.13" y="1.13" width="13.75" height="13.75"/><path class="cls-2" d="M11.17,6.94L12,8.41a0.18,0.18,0,0,1-.11.26l-0.16,0h0l-2.36.58a0.18,0.18,0,0,0-.12.25l1.06,2.09a0.18,0.18,0,0,1-.11.25H10.1a0.18,0.18,0,0,1-.2-0.09L8.62,9.27,8,8,6.26,4.59a0.18,0.18,0,0,0-.2-0.09L3.79,5a0.18,0.18,0,0,0-.12.25L5.84,9.74a0.18,0.18,0,0,1-.12.25L5.66,10a0.18,0.18,0,0,1-.2-0.1L3.1,5a0.18,0.18,0,0,1,.12-0.25l3.07-.64a0.18,0.18,0,0,1,.2.09L8.86,8.88a0.18,0.18,0,0,0,.2.09l2.21-.54a0.18,0.18,0,0,0,.12-0.26L10.62,6.69a0.18,0.18,0,0,1,.12-0.26l2-.45a0.18,0.18,0,0,1,.2.09h0a0.18,0.18,0,0,1-.12.26l-1.49.35A0.18,0.18,0,0,0,11.17,6.94Z"/></svg>