<svg id="Layer_1" data-name="Layer 1" xmlns="http://www.w3.org/2000/svg" viewBox="0 0 160 124.57"><defs><style>.cls-1{fill:#ccc;}.cls-2{fill:#fa543c;}.cls-3{fill:#343a40;}</style></defs><title>160 x 160 px</title><path class="cls-1" d="M54,67.37l0-.06a1.72,1.72,0,0,1,1.14-2.41l24.77-6.08a1.72,1.72,0,0,1,1.94.89h0a1.72,1.72,0,0,1-1.12,2.44L55.95,68.3A1.72,1.72,0,0,1,54,67.37Z"/><path class="cls-1" d="M94.42,84.74l0-.07a1.75,1.75,0,0,1,1.11-2.47l21.33-5.66a1.75,1.75,0,0,0,1.1-2.5l-9.59-18.22a1.75,1.75,0,0,1,1.13-2.51h0a1.75,1.75,0,0,1,2,.88l11.69,22.09a1.75,1.75,0,0,1-1.09,2.5L96.43,85.64A1.75,1.75,0,0,1,94.42,84.74Z"/><path class="cls-1" d="M109.24,53.78v0a1.67,1.67,0,0,1,1.08-2.4L124,48a1.67,1.67,0,0,0,1.07-2.42L118.77,34a1.67,1.67,0,0,1,1.09-2.42h0a1.67,1.67,0,0,1,1.84.83l8.38,15.33A1.67,1.67,0,0,1,129,50.19l-17.9,4.44A1.67,1.67,0,0,1,109.24,53.78Z"/><path class="cls-2" d="M103.5,39.19l7.14,13.49a1.62,1.62,0,0,1-1,2.34l-1.5.37h0L86.57,60.71A1.62,1.62,0,0,0,85.51,63L95.16,82.1a1.62,1.62,0,0,1-1,2.3l-0.46.12a1.62,1.62,0,0,1-1.87-.84L80.17,60.53,74.3,48.9,58.68,17.79a1.62,1.62,0,0,0-1.79-.86L36.15,21.31A1.62,1.62,0,0,0,35,23.61L54.84,64.75A1.62,1.62,0,0,1,53.77,67l-0.56.14a1.62,1.62,0,0,1-1.85-.88L29.87,21.39A1.62,1.62,0,0,1,31,19.1l28-5.85a1.62,1.62,0,0,1,1.78.86l21.65,42.8a1.62,1.62,0,0,0,1.84.84l20.2-5a1.62,1.62,0,0,0,1.05-2.33L98.42,37a1.62,1.62,0,0,1,1.07-2.34l17.92-4.14a1.62,1.62,0,0,1,1.79.8h0a1.62,1.62,0,0,1-1.06,2.36l-13.57,3.17A1.62,1.62,0,0,0,103.5,39.19Z"/><path class="cls-3" d="M8,102.76c0-1.12,0-2.08-.07-2.87h2.43l0.13,1.23h0.05a3.29,3.29,0,0,1,2.78-1.44c1.84,0,3.22,1.21,3.22,3.86v5.34h-2.8v-5c0-1.16-.4-2-1.42-2a1.49,1.49,0,0,0-1.42,1,1.92,1.92,0,0,0-.11.7v5.19H8v-6.13Z"/><path class="cls-3" d="M27.26,106c0,1.18,0,2.13.07,2.89H24.9l-0.13-1.27H24.72a3.21,3.21,0,0,1-2.82,1.47c-1.82,0-3.17-1.14-3.17-3.92V99.89h2.82v4.84c0,1.31.42,2.1,1.4,2.1a1.51,1.51,0,0,0,1.4-1,1.56,1.56,0,0,0,.09-0.61V99.89h2.82V106Z"/><path class="cls-3" d="M29.5,102.76c0-1.12,0-2.08-.07-2.87h2.43L32,101.12H32a3.29,3.29,0,0,1,2.78-1.44c1.84,0,3.22,1.21,3.22,3.86v5.34h-2.8v-5c0-1.16-.4-2-1.42-2a1.49,1.49,0,0,0-1.42,1,1.92,1.92,0,0,0-.11.7v5.19H29.5v-6.13Z"/><path class="cls-3" d="M49.18,104.29a4.52,4.52,0,0,1-4.75,4.8,4.41,4.41,0,0,1-4.66-4.64,4.49,4.49,0,0,1,4.8-4.77A4.38,4.38,0,0,1,49.18,104.29Zm-6.51.09c0,1.55.64,2.7,1.84,2.7s1.79-1.09,1.79-2.7c0-1.34-.52-2.71-1.79-2.71S42.66,103.06,42.66,104.38Z"/><path class="cls-3" d="M50.91,102.76c0-1.12,0-2.08-.07-2.87h2.36l0.13,1.21h0.06a3.12,3.12,0,0,1,2.72-1.42,2.55,2.55,0,0,1,2.47,1.53h0a4,4,0,0,1,1.16-1.09,3.25,3.25,0,0,1,1.71-.44c1.73,0,3,1.21,3,3.9v5.3H61.78V104c0-1.31-.42-2.06-1.33-2.06a1.37,1.37,0,0,0-1.29,1,2.33,2.33,0,0,0-.11.72v5.26H56.33v-5c0-1.14-.4-1.91-1.29-1.91a1.42,1.42,0,0,0-1.31,1,1.86,1.86,0,0,0-.11.7v5.24H50.91v-6.13Z"/><path class="cls-3" d="M71.85,108.89l-0.17-.9H71.63a3.24,3.24,0,0,1-2.58,1.1,2.76,2.76,0,0,1-2.91-2.76c0-2.34,2.1-3.46,5.28-3.44v-0.13c0-.48-0.26-1.16-1.64-1.16a5.06,5.06,0,0,0-2.48.68l-0.52-1.8a7.43,7.43,0,0,1,3.5-.79c3,0,4,1.77,4,3.88v3.13a13.93,13.93,0,0,0,.13,2.19H71.85Zm-0.33-4.25c-1.47,0-2.61.33-2.61,1.42a1,1,0,0,0,1.1,1.07,1.53,1.53,0,0,0,1.45-1,2,2,0,0,0,.06-0.48v-1Z"/><path class="cls-3" d="M85.17,95.82V106.2c0,1,0,2.08.07,2.69H82.76l-0.13-1.33h0a3.14,3.14,0,0,1-2.82,1.53c-2.13,0-3.85-1.82-3.85-4.62,0-3,1.88-4.78,4-4.78a2.74,2.74,0,0,1,2.37,1h0V95.82h2.8Zm-2.8,7.88a4.41,4.41,0,0,0,0-.5,1.68,1.68,0,0,0-1.64-1.38c-1.27,0-1.93,1.14-1.93,2.56s0.75,2.48,1.91,2.48a1.64,1.64,0,0,0,1.62-1.34,2.37,2.37,0,0,0,.07-0.64V103.7Z"/><path class="cls-3" d="M95.9,106c0,1.18,0,2.13.07,2.89H93.54l-0.13-1.27H93.36a3.21,3.21,0,0,1-2.82,1.47c-1.82,0-3.17-1.14-3.17-3.92V99.89h2.82v4.84c0,1.31.42,2.1,1.4,2.1a1.51,1.51,0,0,0,1.4-1,1.55,1.55,0,0,0,.09-0.61V99.89H95.9V106Z"/><path class="cls-3" d="M98.14,102.85c0-1.32,0-2.19-.07-3h2.41l0.09,1.66h0.07a2.64,2.64,0,0,1,2.43-1.86,2.86,2.86,0,0,1,.59,0v2.63a4,4,0,0,0-.75-0.07A1.8,1.8,0,0,0,101,103.7a3.31,3.31,0,0,0-.06.63v4.56h-2.8v-6Z"/><path class="cls-3" d="M113.88,104.29a4.51,4.51,0,0,1-4.75,4.8,4.41,4.41,0,0,1-4.66-4.64,4.49,4.49,0,0,1,4.8-4.77A4.38,4.38,0,0,1,113.88,104.29Zm-6.51.09c0,1.55.64,2.7,1.84,2.7S111,106,111,104.38c0-1.34-.52-2.71-1.79-2.71S107.36,103.06,107.36,104.38Z"/><path class="cls-3" d="M114.78,107.4a1.62,1.62,0,0,1,1.66-1.71,1.7,1.7,0,0,1,0,3.4A1.61,1.61,0,0,1,114.78,107.4Z"/><path class="cls-3" d="M126.52,108.67a6.82,6.82,0,0,1-2.5.4c-2.91,0-4.77-1.77-4.77-4.6,0-2.63,1.8-4.78,5.15-4.78a6.49,6.49,0,0,1,2.13.35l-0.44,2.08a3.83,3.83,0,0,0-1.56-.28,2.52,2.52,0,0,0,.06,5,4.3,4.3,0,0,0,1.6-.28Z"/><path class="cls-3" d="M136.75,104.29a4.51,4.51,0,0,1-4.75,4.8,4.41,4.41,0,0,1-4.66-4.64,4.49,4.49,0,0,1,4.8-4.77A4.38,4.38,0,0,1,136.75,104.29Zm-6.51.09c0,1.55.64,2.7,1.84,2.7s1.79-1.09,1.79-2.7c0-1.34-.52-2.71-1.79-2.71S130.24,103.06,130.24,104.38Z"/><path class="cls-3" d="M138.48,102.76c0-1.12,0-2.08-.07-2.87h2.36l0.13,1.21h0.06a3.12,3.12,0,0,1,2.72-1.42,2.55,2.55,0,0,1,2.47,1.53h0a4,4,0,0,1,1.16-1.09,3.25,3.25,0,0,1,1.71-.44c1.73,0,3,1.21,3,3.9v5.3h-2.72V104c0-1.31-.42-2.06-1.33-2.06a1.37,1.37,0,0,0-1.29,1,2.33,2.33,0,0,0-.11.72v5.26h-2.72v-5c0-1.14-.4-1.91-1.29-1.91a1.42,1.42,0,0,0-1.31,1,1.86,1.86,0,0,0-.11.7v5.24h-2.72v-6.13Z"/></svg>