<svg id="Layer_1" data-name="Layer 1" xmlns="http://www.w3.org/2000/svg" viewBox="0 0 250 65.33"><defs><style>.cls-1{fill:#ccc;}.cls-2{fill:#fa543c;}.cls-3{fill:#343a40;}</style></defs><title>250 x 150 px</title><path class="cls-1" d="M20.51,42.32l0,0a1.05,1.05,0,0,1,.7-1.48l15.19-3.73a1.05,1.05,0,0,1,1.19.55h0a1.05,1.05,0,0,1-.69,1.49L21.71,42.89A1.05,1.05,0,0,1,20.51,42.32Z"/><path class="cls-1" d="M45.31,53l0,0A1.07,1.07,0,0,1,46,51.41l13.08-3.47a1.07,1.07,0,0,0,.67-1.53L53.85,35.23a1.07,1.07,0,0,1,.69-1.54h0a1.07,1.07,0,0,1,1.2.54l7.17,13.55a1.07,1.07,0,0,1-.67,1.54l-15.7,4.21A1.07,1.07,0,0,1,45.31,53Z"/><path class="cls-1" d="M54.4,34h0a1,1,0,0,1,.66-1.47l8.39-2.06A1,1,0,0,0,64.1,29l-3.86-7.09a1,1,0,0,1,.67-1.49h0a1,1,0,0,1,1.13.51l5.14,9.41a1,1,0,0,1-.65,1.48l-11,2.72A1,1,0,0,1,54.4,34Z"/><path class="cls-2" d="M50.88,25l4.38,8.28a1,1,0,0,1-.64,1.43L53.7,35h0L40.5,38.23a1,1,0,0,0-.65,1.42l5.92,11.7a1,1,0,0,1-.63,1.41l-0.28.07a1,1,0,0,1-1.15-.52l-7.14-14.2L33,31,23.39,11.91a1,1,0,0,0-1.1-.53L9.57,14.07a1,1,0,0,0-.69,1.41L21,40.71a1,1,0,0,1-.66,1.4L20,42.2a1,1,0,0,1-1.14-.54L5.72,14.12a1,1,0,0,1,.69-1.4L23.58,9.13a1,1,0,0,1,1.09.53L38,35.91a1,1,0,0,0,1.13.52l12.39-3A1,1,0,0,0,52.11,32l-4.35-8.27a1,1,0,0,1,.66-1.43l11-2.54a1,1,0,0,1,1.1.49h0a1,1,0,0,1-.65,1.45L51.54,23.6A1,1,0,0,0,50.88,25Z"/><path class="cls-3" d="M78,32c0-1.29,0-2.38-.08-3.29h2.78l0.15,1.41H80.9a3.78,3.78,0,0,1,3.18-1.65c2.11,0,3.69,1.39,3.69,4.43V39H84.57V33.3c0-1.33-.46-2.24-1.62-2.24a1.71,1.71,0,0,0-1.62,1.2,2.2,2.2,0,0,0-.13.8V39H78V32Z"/><path class="cls-3" d="M100.07,35.7c0,1.35,0,2.45.08,3.31H97.37l-0.15-1.46H97.16a3.68,3.68,0,0,1-3.23,1.69c-2.09,0-3.63-1.31-3.63-4.49V28.7h3.23v5.55c0,1.5.48,2.4,1.6,2.4a1.73,1.73,0,0,0,1.6-1.12,1.79,1.79,0,0,0,.11-0.7V28.7h3.23v7Z"/><path class="cls-3" d="M102.64,32c0-1.29,0-2.38-.08-3.29h2.78l0.15,1.41h0.06a3.78,3.78,0,0,1,3.18-1.65c2.11,0,3.69,1.39,3.69,4.43V39h-3.21V33.3c0-1.33-.46-2.24-1.62-2.24a1.71,1.71,0,0,0-1.62,1.2,2.2,2.2,0,0,0-.13.8V39h-3.21V32Z"/><path class="cls-3" d="M125.18,33.74a5.17,5.17,0,0,1-5.44,5.5,5.05,5.05,0,0,1-5.34-5.31,5.15,5.15,0,0,1,5.5-5.46A5,5,0,0,1,125.18,33.74Zm-7.46.11c0,1.77.74,3.1,2.11,3.1s2-1.24,2-3.1c0-1.54-.59-3.1-2-3.1S117.72,32.33,117.72,33.85Z"/><path class="cls-3" d="M127.17,32c0-1.29,0-2.38-.08-3.29h2.7l0.15,1.39H130a3.58,3.58,0,0,1,3.12-1.62,2.92,2.92,0,0,1,2.83,1.75h0A4.61,4.61,0,0,1,137.31,29a3.72,3.72,0,0,1,2-.51c2,0,3.48,1.39,3.48,4.47V39h-3.12V33.4c0-1.5-.49-2.36-1.52-2.36a1.57,1.57,0,0,0-1.48,1.12,2.67,2.67,0,0,0-.13.82v6h-3.12V33.23c0-1.31-.46-2.19-1.48-2.19a1.63,1.63,0,0,0-1.5,1.16,2.13,2.13,0,0,0-.13.8v6h-3.12V32Z"/><path class="cls-3" d="M151.17,39L151,38h-0.06a3.72,3.72,0,0,1-3,1.27,3.16,3.16,0,0,1-3.33-3.16c0-2.68,2.4-4,6.05-3.94V32c0-.55-0.3-1.33-1.88-1.33a5.8,5.8,0,0,0-2.85.78l-0.59-2.07a8.52,8.52,0,0,1,4-.91c3.44,0,4.53,2,4.53,4.45V36.5a16,16,0,0,0,.15,2.51h-2.89Zm-0.38-4.87c-1.69,0-3,.38-3,1.62A1.15,1.15,0,0,0,149.06,37a1.75,1.75,0,0,0,1.67-1.18,2.31,2.31,0,0,0,.06-0.55V34.14Z"/><path class="cls-3" d="M166.43,24V35.93c0,1.16,0,2.38.08,3.08h-2.85l-0.15-1.52h0a3.6,3.6,0,0,1-3.23,1.75c-2.45,0-4.41-2.09-4.41-5.29,0-3.48,2.15-5.48,4.62-5.48a3.14,3.14,0,0,1,2.72,1.16h0V24h3.21Zm-3.21,9a5.06,5.06,0,0,0,0-.57,1.93,1.93,0,0,0-1.88-1.58c-1.46,0-2.21,1.31-2.21,2.93s0.86,2.85,2.19,2.85a1.88,1.88,0,0,0,1.86-1.54,2.72,2.72,0,0,0,.08-0.74V33.07Z"/><path class="cls-3" d="M178.73,35.7c0,1.35,0,2.45.08,3.31H176l-0.15-1.46h-0.06a3.68,3.68,0,0,1-3.23,1.69c-2.09,0-3.63-1.31-3.63-4.49V28.7h3.23v5.55c0,1.5.49,2.4,1.6,2.4a1.73,1.73,0,0,0,1.6-1.12,1.78,1.78,0,0,0,.11-0.7V28.7h3.23v7Z"/><path class="cls-3" d="M181.3,32.1c0-1.52,0-2.51-.08-3.4H184l0.11,1.9h0.08A3,3,0,0,1,187,28.47a3.27,3.27,0,0,1,.67,0v3a4.61,4.61,0,0,0-.86-0.08,2.06,2.06,0,0,0-2.19,1.62,3.79,3.79,0,0,0-.06.72V39H181.3V32.1Z"/><path class="cls-3" d="M199.33,33.74a5.17,5.17,0,0,1-5.44,5.5,5.05,5.05,0,0,1-5.33-5.31,5.15,5.15,0,0,1,5.5-5.46A5,5,0,0,1,199.33,33.74Zm-7.46.11c0,1.77.74,3.1,2.11,3.1s2-1.24,2-3.1c0-1.54-.59-3.1-2-3.1S191.87,32.33,191.87,33.85Z"/><path class="cls-3" d="M200.36,37.3a1.86,1.86,0,0,1,1.9-2,2,2,0,0,1,0,3.9A1.85,1.85,0,0,1,200.36,37.3Z"/><path class="cls-3" d="M213.82,38.76a7.82,7.82,0,0,1-2.87.46c-3.33,0-5.46-2-5.46-5.27,0-3,2.07-5.48,5.9-5.48a7.44,7.44,0,0,1,2.45.4l-0.51,2.38a4.38,4.38,0,0,0-1.79-.32,2.67,2.67,0,0,0-2.76,2.89,2.68,2.68,0,0,0,2.83,2.89,4.93,4.93,0,0,0,1.83-.32Z"/><path class="cls-3" d="M225.54,33.74a5.17,5.17,0,0,1-5.44,5.5,5.05,5.05,0,0,1-5.33-5.31,5.15,5.15,0,0,1,5.5-5.46A5,5,0,0,1,225.54,33.74Zm-7.46.11c0,1.77.74,3.1,2.11,3.1s2-1.24,2-3.1c0-1.54-.59-3.1-2-3.1S218.08,32.33,218.08,33.85Z"/><path class="cls-3" d="M227.53,32c0-1.29,0-2.38-.08-3.29h2.7l0.15,1.39h0.06a3.58,3.58,0,0,1,3.12-1.62,2.92,2.92,0,0,1,2.83,1.75h0A4.61,4.61,0,0,1,237.67,29a3.72,3.72,0,0,1,2-.51c2,0,3.48,1.39,3.48,4.47V39H240V33.4c0-1.5-.49-2.36-1.52-2.36A1.57,1.57,0,0,0,237,32.16a2.67,2.67,0,0,0-.13.82v6h-3.12V33.23c0-1.31-.46-2.19-1.48-2.19a1.63,1.63,0,0,0-1.5,1.16,2.13,2.13,0,0,0-.13.8v6h-3.12V32Z"/></svg>