<svg id="Layer_1" data-name="Layer 1" xmlns="http://www.w3.org/2000/svg" viewBox="0 0 32 32"><defs><style>.cls-1{fill:#fa543c;}.cls-2{fill:#fff;}</style></defs><title>32 px</title><rect class="cls-1" x="1.52" y="1.52" width="28.97" height="28.97"/><path class="cls-2" d="M22.69,13.76l1.65,3.12a0.37,0.37,0,0,1-.24.54l-0.35.09h0l-5,1.23a0.37,0.37,0,0,0-.24.53l2.23,4.41a0.37,0.37,0,0,1-.24.53l-0.11,0A0.37,0.37,0,0,1,20,24L17.3,18.69,15.94,16,12.33,8.82a0.37,0.37,0,0,0-.41-0.2l-4.79,1a0.37,0.37,0,0,0-.26.53l4.58,9.5a0.37,0.37,0,0,1-.25.53l-0.13,0a0.37,0.37,0,0,1-.43-0.2l-5-10.37a0.37,0.37,0,0,1,.26-0.53l6.46-1.35a0.37,0.37,0,0,1,.41.2l5,9.89a0.37,0.37,0,0,0,.42.19l4.67-1.14a0.37,0.37,0,0,0,.24-0.54l-1.64-3.11a0.37,0.37,0,0,1,.25-0.54l4.14-1a0.37,0.37,0,0,1,.41.19h0a0.37,0.37,0,0,1-.24.54l-3.14.73A0.37,0.37,0,0,0,22.69,13.76Z"/></svg>