<svg id="Layer_1" data-name="Layer 1" xmlns="http://www.w3.org/2000/svg" viewBox="0 0 350 75"><defs><style>.cls-1{fill:#ccc;}.cls-2{fill:#fa543c;}.cls-3{fill:#343a40;}</style></defs><title>350 x 75 px</title><path class="cls-1" d="M26.82,54.05l0,0a1.5,1.5,0,0,1,1-2.11l21.73-5.33a1.5,1.5,0,0,1,1.7.78h0a1.5,1.5,0,0,1-1,2.14L28.53,54.86A1.5,1.5,0,0,1,26.82,54.05Z"/><path class="cls-1" d="M62.29,69.28l0-.06a1.53,1.53,0,0,1,1-2.17l18.71-5a1.53,1.53,0,0,0,1-2.19l-8.41-16a1.53,1.53,0,0,1,1-2.2h0a1.53,1.53,0,0,1,1.72.77L87.46,61.86a1.53,1.53,0,0,1-1,2.2l-22.45,6A1.53,1.53,0,0,1,62.29,69.28Z"/><path class="cls-1" d="M75.29,42.13h0a1.46,1.46,0,0,1,.95-2.1l12-2.94a1.46,1.46,0,0,0,.94-2.12L83.65,24.8a1.46,1.46,0,0,1,1-2.12h0a1.46,1.46,0,0,1,1.62.72l7.35,13.45A1.46,1.46,0,0,1,92.64,39L76.94,42.87A1.46,1.46,0,0,1,75.29,42.13Z"/><path class="cls-2" d="M70.26,29.32l6.27,11.84a1.42,1.42,0,0,1-.92,2l-1.32.33h0L55.4,48.2a1.42,1.42,0,0,0-.93,2L62.94,67a1.42,1.42,0,0,1-.9,2l-0.4.11A1.42,1.42,0,0,1,60,68.36L49.78,48l-5.15-10.2L30.93,10.55a1.42,1.42,0,0,0-1.57-.75l-18.2,3.84a1.42,1.42,0,0,0-1,2l17.39,36.1a1.42,1.42,0,0,1-.94,2l-0.49.12a1.42,1.42,0,0,1-1.63-.77L5.66,13.71a1.42,1.42,0,0,1,1-2L31.21,6.57a1.42,1.42,0,0,1,1.56.75l19,37.55a1.42,1.42,0,0,0,1.61.74l17.72-4.34a1.42,1.42,0,0,0,.92-2L65.79,27.4a1.42,1.42,0,0,1,.94-2.05l15.72-3.63a1.42,1.42,0,0,1,1.57.7h0a1.42,1.42,0,0,1-.93,2.07L71.19,27.27A1.42,1.42,0,0,0,70.26,29.32Z"/><path class="cls-3" d="M109,39.27c0-1.84-.06-3.41-0.12-4.71h4l0.21,2h0.09a5.4,5.4,0,0,1,4.56-2.35c3,0,5.28,2,5.28,6.33v8.75h-4.58V41.14c0-1.9-.66-3.2-2.32-3.2a2.45,2.45,0,0,0-2.32,1.72,3.14,3.14,0,0,0-.18,1.15v8.51H109v-10Z"/><path class="cls-3" d="M140.61,44.58c0,1.93.06,3.5,0.12,4.74h-4l-0.21-2.08h-0.09a5.26,5.26,0,0,1-4.62,2.41c-3,0-5.19-1.87-5.19-6.43V34.57h4.62V42.5c0,2.14.69,3.44,2.29,3.44a2.47,2.47,0,0,0,2.29-1.6,2.56,2.56,0,0,0,.15-1V34.57h4.62v10Z"/><path class="cls-3" d="M144.29,39.27c0-1.84-.06-3.41-0.12-4.71h4l0.21,2h0.09A5.4,5.4,0,0,1,153,34.23c3,0,5.28,2,5.28,6.33v8.75H153.7V41.14c0-1.9-.66-3.2-2.32-3.2a2.45,2.45,0,0,0-2.32,1.72,3.14,3.14,0,0,0-.18,1.15v8.51h-4.59v-10Z"/><path class="cls-3" d="M176.54,41.78c0,5.4-3.83,7.87-7.78,7.87-4.31,0-7.63-2.84-7.63-7.6s3.14-7.81,7.87-7.81A7.17,7.17,0,0,1,176.54,41.78Zm-10.68.15c0,2.53,1.06,4.43,3,4.43,1.78,0,2.93-1.78,2.93-4.43,0-2.2-.85-4.44-2.93-4.44S165.86,39.76,165.86,41.93Z"/><path class="cls-3" d="M179.37,39.27c0-1.84-.06-3.41-0.12-4.71h3.86l0.21,2h0.09a5.11,5.11,0,0,1,4.46-2.32,4.18,4.18,0,0,1,4,2.5H192a6.59,6.59,0,0,1,1.9-1.78,5.32,5.32,0,0,1,2.8-.72c2.84,0,5,2,5,6.39v8.69H197.2v-8c0-2.14-.69-3.38-2.17-3.38a2.24,2.24,0,0,0-2.11,1.6,3.81,3.81,0,0,0-.18,1.18v8.63h-4.46V41.05c0-1.87-.66-3.14-2.11-3.14A2.33,2.33,0,0,0,184,39.57a3,3,0,0,0-.18,1.15v8.6h-4.46v-10Z"/><path class="cls-3" d="M213.7,49.32l-0.27-1.48h-0.09a5.32,5.32,0,0,1-4.22,1.81,4.52,4.52,0,0,1-4.77-4.53c0-3.83,3.44-5.67,8.66-5.64V39.27c0-.78-0.42-1.9-2.68-1.9a8.29,8.29,0,0,0-4.07,1.12l-0.85-3a12.18,12.18,0,0,1,5.73-1.3c4.92,0,6.48,2.9,6.48,6.36v5.13a22.83,22.83,0,0,0,.21,3.59H213.7Zm-0.54-7c-2.41,0-4.28.54-4.28,2.32a1.65,1.65,0,0,0,1.81,1.75,2.51,2.51,0,0,0,2.38-1.69,3.3,3.3,0,0,0,.09-0.79v-1.6Z"/><path class="cls-3" d="M235.54,27.9v17c0,1.66.06,3.41,0.12,4.4h-4.07l-0.21-2.17h-0.06a5.15,5.15,0,0,1-4.62,2.5c-3.5,0-6.3-3-6.3-7.57,0-5,3.08-7.84,6.61-7.84a4.49,4.49,0,0,1,3.89,1.66H231v-8h4.59ZM231,40.81a7.23,7.23,0,0,0-.06-0.81,2.75,2.75,0,0,0-2.68-2.26c-2.08,0-3.17,1.87-3.17,4.19,0,2.5,1.24,4.07,3.14,4.07a2.68,2.68,0,0,0,2.65-2.2,3.88,3.88,0,0,0,.12-1.05V40.81Z"/><path class="cls-3" d="M253.12,44.58c0,1.93.06,3.5,0.12,4.74h-4l-0.21-2.08H249a5.26,5.26,0,0,1-4.62,2.41c-3,0-5.19-1.87-5.19-6.43V34.57h4.62V42.5c0,2.14.69,3.44,2.29,3.44a2.47,2.47,0,0,0,2.29-1.6,2.54,2.54,0,0,0,.15-1V34.57h4.62v10Z"/><path class="cls-3" d="M256.8,39.42c0-2.17-.06-3.59-0.12-4.86h4l0.15,2.71h0.12a4.33,4.33,0,0,1,4-3,4.68,4.68,0,0,1,1,.06v4.31a6.59,6.59,0,0,0-1.24-.12,3,3,0,0,0-3.14,2.32,5.43,5.43,0,0,0-.09,1v7.48H256.8V39.42Z"/><path class="cls-3" d="M282.59,41.78c0,5.4-3.83,7.87-7.78,7.87-4.31,0-7.63-2.84-7.63-7.6s3.14-7.81,7.87-7.81A7.17,7.17,0,0,1,282.59,41.78Zm-10.68.15c0,2.53,1.06,4.43,3,4.43,1.78,0,2.93-1.78,2.93-4.43,0-2.2-.85-4.44-2.93-4.44S271.92,39.76,271.92,41.93Z"/><path class="cls-3" d="M284.07,46.87a2.65,2.65,0,0,1,2.71-2.8,2.79,2.79,0,0,1,0,5.58A2.64,2.64,0,0,1,284.07,46.87Z"/><path class="cls-3" d="M303.32,49a11.19,11.19,0,0,1-4.1.66c-4.76,0-7.81-2.9-7.81-7.54,0-4.31,3-7.84,8.45-7.84a10.64,10.64,0,0,1,3.5.57l-0.72,3.41a6.27,6.27,0,0,0-2.56-.45,3.82,3.82,0,0,0-4,4.13,3.84,3.84,0,0,0,4,4.13,7,7,0,0,0,2.62-.45Z"/><path class="cls-3" d="M320.09,41.78c0,5.4-3.83,7.87-7.78,7.87-4.31,0-7.63-2.84-7.63-7.6s3.14-7.81,7.87-7.81A7.17,7.17,0,0,1,320.09,41.78Zm-10.68.15c0,2.53,1.06,4.43,3,4.43,1.78,0,2.93-1.78,2.93-4.43,0-2.2-.85-4.44-2.93-4.44S309.41,39.76,309.41,41.93Z"/><path class="cls-3" d="M322.92,39.27c0-1.84-.06-3.41-0.12-4.71h3.86l0.21,2H327a5.11,5.11,0,0,1,4.46-2.32,4.18,4.18,0,0,1,4,2.5h0.06a6.59,6.59,0,0,1,1.9-1.78,5.32,5.32,0,0,1,2.8-.72c2.84,0,5,2,5,6.39v8.69h-4.46v-8c0-2.14-.69-3.38-2.17-3.38a2.24,2.24,0,0,0-2.11,1.6,3.81,3.81,0,0,0-.18,1.18v8.63h-4.46V41.05c0-1.87-.66-3.14-2.11-3.14a2.33,2.33,0,0,0-2.14,1.66,3,3,0,0,0-.18,1.15v8.6h-4.46v-10Z"/></svg>