<svg id="Layer_1" data-name="Layer 1" xmlns="http://www.w3.org/2000/svg" viewBox="0 0 400 100"><title>400 x 100 px_singlecolor</title><path d="M124.45,51.07c0-2.1-.07-3.88-0.14-5.36h4.53l0.24,2.3h0.1a6.15,6.15,0,0,1,5.19-2.68c3.43,0,6,2.27,6,7.21v10h-5.22V53.2c0-2.16-.76-3.64-2.64-3.64a2.79,2.79,0,0,0-2.65,2,3.58,3.58,0,0,0-.21,1.31v9.69h-5.22V51.07Z"/><path d="M160.42,57.12c0,2.2.07,4,.14,5.39H156l-0.24-2.37h-0.1a6,6,0,0,1-5.26,2.75c-3.4,0-5.91-2.13-5.91-7.32V45.71h5.26v9c0,2.44.79,3.92,2.61,3.92A2.81,2.81,0,0,0,155,56.84a2.91,2.91,0,0,0,.17-1.13v-10h5.26V57.12Z"/><path d="M164.61,51.07c0-2.1-.07-3.88-0.14-5.36H169l0.24,2.3h0.1a6.15,6.15,0,0,1,5.19-2.68c3.43,0,6,2.27,6,7.21v10h-5.22V53.2c0-2.16-.76-3.64-2.64-3.64a2.79,2.79,0,0,0-2.65,2,3.58,3.58,0,0,0-.21,1.31v9.69h-5.22V51.07Z"/><path d="M201.33,53.92c0,6.15-4.36,9-8.86,9-4.91,0-8.69-3.23-8.69-8.66s3.57-8.9,9-8.9A8.17,8.17,0,0,1,201.33,53.92Zm-12.16.17c0,2.88,1.2,5,3.43,5,2,0,3.33-2,3.33-5,0-2.51-1-5.05-3.33-5.05S189.17,51.62,189.17,54.09Z"/><path d="M204.56,51.07c0-2.1-.07-3.88-0.14-5.36h4.4L209.06,48h0.1a5.82,5.82,0,0,1,5.08-2.65,4.76,4.76,0,0,1,4.6,2.85h0.07a7.51,7.51,0,0,1,2.17-2,6.06,6.06,0,0,1,3.19-.82c3.23,0,5.67,2.27,5.67,7.28v9.89h-5.08V53.37c0-2.44-.79-3.85-2.47-3.85a2.56,2.56,0,0,0-2.4,1.82,4.34,4.34,0,0,0-.21,1.34v9.83h-5.08V53.1c0-2.13-.76-3.57-2.4-3.57a2.66,2.66,0,0,0-2.44,1.89,3.47,3.47,0,0,0-.21,1.31v9.79h-5.08V51.07Z"/><path d="M243.65,62.51l-0.31-1.68h-0.1a6.05,6.05,0,0,1-4.81,2.06A5.15,5.15,0,0,1,233,57.73c0-4.36,3.92-6.46,9.86-6.42V51.07c0-.89-0.48-2.16-3.06-2.16a9.44,9.44,0,0,0-4.64,1.27l-1-3.37a13.87,13.87,0,0,1,6.53-1.48c5.6,0,7.38,3.3,7.38,7.25v5.84a26,26,0,0,0,.24,4.09h-4.71ZM243,54.57c-2.75,0-4.88.62-4.88,2.65a1.88,1.88,0,0,0,2.06,2,2.85,2.85,0,0,0,2.71-1.92,3.76,3.76,0,0,0,.1-0.89V54.57Z"/><path d="M268.53,38.12V57.49c0,1.89.07,3.88,0.14,5H264L263.79,60h-0.07a5.87,5.87,0,0,1-5.26,2.85c-4,0-7.18-3.4-7.18-8.62,0-5.67,3.5-8.93,7.52-8.93,2.06,0,3.67.72,4.43,1.89h0.07v-9.1h5.22Zm-5.22,14.7a8.24,8.24,0,0,0-.07-0.93,3.14,3.14,0,0,0-3.06-2.58c-2.37,0-3.61,2.13-3.61,4.78,0,2.85,1.41,4.64,3.57,4.64a3.06,3.06,0,0,0,3-2.51,4.42,4.42,0,0,0,.14-1.2v-2.2Z"/><path d="M288.55,57.12c0,2.2.07,4,.14,5.39h-4.53l-0.24-2.37h-0.1a6,6,0,0,1-5.26,2.75c-3.4,0-5.91-2.13-5.91-7.32V45.71h5.26v9c0,2.44.79,3.92,2.61,3.92a2.81,2.81,0,0,0,2.61-1.82,2.9,2.9,0,0,0,.17-1.13v-10h5.26V57.12Z"/><path d="M292.75,51.24c0-2.47-.07-4.09-0.14-5.53h4.5l0.17,3.09h0.14A4.93,4.93,0,0,1,302,45.33a5.33,5.33,0,0,1,1.1.07v4.91a7.5,7.5,0,0,0-1.41-.14,3.36,3.36,0,0,0-3.57,2.65A6.18,6.18,0,0,0,298,54v8.52h-5.22V51.24Z"/><path d="M322.12,53.92c0,6.15-4.36,9-8.86,9-4.91,0-8.69-3.23-8.69-8.66s3.57-8.9,9-8.9A8.17,8.17,0,0,1,322.12,53.92ZM310,54.09c0,2.88,1.2,5,3.43,5,2,0,3.33-2,3.33-5,0-2.51-1-5.05-3.33-5.05S310,51.62,310,54.09Z"/><path d="M323.8,59.73a3,3,0,0,1,3.09-3.19,3.18,3.18,0,0,1,0,6.36A3,3,0,0,1,323.8,59.73Z"/><path d="M345.72,62.1a12.74,12.74,0,0,1-4.67.76c-5.43,0-8.9-3.3-8.9-8.59,0-4.91,3.37-8.93,9.62-8.93a12.12,12.12,0,0,1,4,.65l-0.83,3.88a7.14,7.14,0,0,0-2.92-.52,4.35,4.35,0,0,0-4.5,4.71,4.37,4.37,0,0,0,4.6,4.71,8,8,0,0,0,3-.52Z"/><path d="M364.82,53.92c0,6.15-4.36,9-8.86,9-4.91,0-8.69-3.23-8.69-8.66s3.57-8.9,9-8.9A8.17,8.17,0,0,1,364.82,53.92Zm-12.16.17c0,2.88,1.2,5,3.43,5,2,0,3.33-2,3.33-5,0-2.51-1-5.05-3.33-5.05S352.66,51.62,352.66,54.09Z"/><path d="M368,51.07c0-2.1-.07-3.88-0.14-5.36h4.4L372.55,48h0.1a5.82,5.82,0,0,1,5.08-2.65,4.76,4.76,0,0,1,4.6,2.85h0.07a7.51,7.51,0,0,1,2.17-2,6.06,6.06,0,0,1,3.19-.82c3.23,0,5.67,2.27,5.67,7.28v9.89h-5.08V53.37c0-2.44-.79-3.85-2.47-3.85a2.56,2.56,0,0,0-2.4,1.82,4.34,4.34,0,0,0-.21,1.34v9.83h-5.08V53.1c0-2.13-.76-3.57-2.4-3.57a2.66,2.66,0,0,0-2.44,1.89,3.47,3.47,0,0,0-.21,1.31v9.79H368V51.07Z"/><path d="M89,56.24a1.61,1.61,0,0,1-.63.31l-1.5.37h0l-1.29.32L94.7,74.56a1.74,1.74,0,0,1-1.1,2.5L73.36,82.43,74,83.61a1.62,1.62,0,0,1-1,2.3L72.47,86a1.58,1.58,0,0,1-.37,0,1.74,1.74,0,0,0,1.12.08L98.8,79.3a1.74,1.74,0,0,0,1.09-2.5Z"/><path d="M106.85,48.31L98.48,33a1.65,1.65,0,0,0-1.4-.85,1.6,1.6,0,0,1,.9.74,1.62,1.62,0,0,1-1.05,2.36l-0.9.21,5.81,10.7a1.67,1.67,0,0,1-1.07,2.41L88.08,51.67l1.35,2.55a1.6,1.6,0,0,1,.16.52l16.2-4A1.67,1.67,0,0,0,106.85,48.31Z"/><path d="M80.29,39.74l7.14,13.48a1.62,1.62,0,0,1-1,2.33l-1.5.37h0l-21.5,5.33a1.62,1.62,0,0,0-1.06,2.31L72,82.61a1.62,1.62,0,0,1-1,2.3L70.47,85a1.62,1.62,0,0,1-1.87-.84L57,61.06,51.12,49.44,35.51,18.36a1.62,1.62,0,0,0-1.78-.86L13,21.88a1.62,1.62,0,0,0-1.13,2.29l19.8,41.11a1.62,1.62,0,0,1-1.07,2.28L30,67.7a1.62,1.62,0,0,1-1.85-.87L6.72,22a1.62,1.62,0,0,1,1.13-2.29l28-5.84a1.62,1.62,0,0,1,1.78.86L59.23,57.45a1.62,1.62,0,0,0,1.83.84l20.18-4.95a1.62,1.62,0,0,0,1-2.33L75.21,37.55a1.62,1.62,0,0,1,1.07-2.34l17.9-4.14a1.62,1.62,0,0,1,1.79.8h0a1.62,1.62,0,0,1-1.05,2.36L81.36,37.4A1.62,1.62,0,0,0,80.29,39.74Z"/><path d="M54.89,59.81L33.12,65.15l0.55,1.13a1.62,1.62,0,0,1-1.07,2.28L32,68.7a1.58,1.58,0,0,1-.36,0,1.7,1.7,0,0,0,1.1.1L56.37,63Z"/></svg>