<svg id="Layer_1" data-name="Layer 1" xmlns="http://www.w3.org/2000/svg" viewBox="0 0 48 48"><defs><style>.cls-1{fill:#fa543c;}.cls-2{fill:#fff;}</style></defs><title>48 px</title><rect class="cls-1" x="2.28" y="2.28" width="43.44" height="43.44"/><path class="cls-2" d="M34,20.64l2.47,4.67a0.56,0.56,0,0,1-.36.81l-0.52.13h0l-7.45,1.85a0.56,0.56,0,0,0-.37.8l3.34,6.61a0.56,0.56,0,0,1-.36.8l-0.16,0A0.56,0.56,0,0,1,30,36l-4-8-2-4L18.5,13.23a0.56,0.56,0,0,0-.62-0.3L10.7,14.45a0.56,0.56,0,0,0-.39.79l6.86,14.25a0.56,0.56,0,0,1-.37.79l-0.19,0A0.56,0.56,0,0,1,16,30L8.52,14.47a0.56,0.56,0,0,1,.39-0.79l9.69-2a0.56,0.56,0,0,1,.62.3l7.5,14.83a0.56,0.56,0,0,0,.64.29l7-1.72a0.56,0.56,0,0,0,.36-0.81l-2.46-4.67a0.56,0.56,0,0,1,.37-0.81l6.21-1.43a0.56,0.56,0,0,1,.62.28h0a0.56,0.56,0,0,1-.37.82l-4.7,1.1A0.56,0.56,0,0,0,34,20.64Z"/></svg>